<svg width="133" height="62" viewBox="0 0 133 62" fill="none" xmlns="http://www.w3.org/2000/svg">
<g filter="url(#filter0_dddi_19_896)">
<path d="M65.5398 33.8206H60.017C60.0341 33.0876 59.9403 32.4399 59.7358 31.8774C59.5313 31.3064 59.2244 30.8206 58.8153 30.42C58.4148 30.0194 57.9247 29.7169 57.3452 29.5123C56.7656 29.2992 56.1136 29.1927 55.3892 29.1927C53.9915 29.1927 52.7088 29.5421 51.5412 30.241C50.3736 30.9399 49.3892 31.9541 48.5881 33.2836C47.7869 34.6046 47.233 36.2027 46.9261 38.0777C46.6278 39.8845 46.6449 41.3973 46.9773 42.616C47.3097 43.8348 47.8977 44.7552 48.7415 45.3774C49.5938 45.991 50.6548 46.2978 51.9247 46.2978C52.7088 46.2978 53.4545 46.1998 54.1619 46.0038C54.8693 45.7992 55.5128 45.5095 56.0923 45.1345C56.6804 44.751 57.1918 44.2865 57.6264 43.741C58.0696 43.1956 58.4148 42.5777 58.6619 41.8873H64.223C63.8736 43.089 63.3281 44.2481 62.5866 45.3646C61.8537 46.4811 60.946 47.4782 59.8636 48.3561C58.7813 49.2254 57.5497 49.9157 56.169 50.4271C54.7884 50.9385 53.2756 51.1941 51.6307 51.1941C49.2528 51.1941 47.2116 50.6487 45.5071 49.5578C43.8111 48.4669 42.5881 46.8944 41.8381 44.8404C41.0881 42.7865 40.9474 40.3106 41.4162 37.4129C41.8849 34.6089 42.8011 32.2311 44.1648 30.2794C45.5369 28.3191 47.2031 26.8319 49.1634 25.8177C51.1321 24.8035 53.2372 24.2964 55.4787 24.2964C57.0384 24.2964 58.4489 24.5095 59.7102 24.9356C60.9716 25.3617 62.0455 25.9839 62.9318 26.8021C63.8267 27.6117 64.5 28.6046 64.9517 29.7808C65.4034 30.9569 65.5994 32.3035 65.5398 33.8206ZM76.5916 24.6544L72.245 50.8362H66.7095L71.0561 24.6544H76.5916ZM79.3817 29.2183L80.1488 24.6544H101.652L100.885 29.2183H92.869L89.2894 50.8362H83.8178L87.3974 29.2183H79.3817ZM103.659 24.6544H109.859L113.963 35.9299H114.244L122.055 24.6544H128.255L115.906 41.5805L114.359 50.8362H108.862L110.409 41.5805L103.659 24.6544Z" fill="white"/>
<path d="M15.6705 13.5455L15.0682 17.1818H4.54545L5.15909 13.5455H15.6705ZM8.22727 9.36364H13.0682L10.3636 25.6364C10.2879 26.0833 10.2992 26.4318 10.3977 26.6818C10.4962 26.9242 10.6591 27.0947 10.8864 27.1932C11.1212 27.2917 11.4015 27.3409 11.7273 27.3409C11.9545 27.3409 12.1856 27.322 12.4205 27.2841C12.6553 27.2386 12.8333 27.2045 12.9545 27.1818L13.1364 30.7841C12.8636 30.8674 12.4962 30.9583 12.0341 31.0568C11.5795 31.1553 11.0417 31.2159 10.4205 31.2386C9.23864 31.2841 8.23864 31.1288 7.42045 30.7727C6.60227 30.4091 6.01515 29.8523 5.65909 29.1023C5.30303 28.3523 5.22727 27.4091 5.43182 26.2727L8.22727 9.36364ZM22.8352 20.9091L21.1534 31H16.3239L20.1875 7.72727H24.8807L23.4261 16.625H23.6193C24.1799 15.5947 24.9489 14.7879 25.9261 14.2045C26.9034 13.6136 28.0587 13.3182 29.392 13.3182C30.6042 13.3182 31.6155 13.5833 32.4261 14.1136C33.2443 14.6364 33.8239 15.3902 34.1648 16.375C34.5057 17.3523 34.5625 18.5227 34.3352 19.8864L32.4716 31H27.642L29.3466 20.75C29.5208 19.6742 29.3807 18.8371 28.9261 18.2386C28.4792 17.6402 27.767 17.3409 26.7898 17.3409C26.1307 17.3409 25.5246 17.4811 24.9716 17.7614C24.4186 18.0417 23.9527 18.4508 23.5739 18.9886C23.2027 19.5189 22.9564 20.1591 22.8352 20.9091ZM44.1676 31.3409C42.3797 31.3409 40.8987 30.9773 39.7244 30.25C38.5502 29.5152 37.7244 28.4773 37.2472 27.1364C36.7775 25.7879 36.6979 24.1932 37.0085 22.3523C37.3116 20.5568 37.9214 18.9811 38.8381 17.625C39.7623 16.2689 40.9214 15.2121 42.3153 14.4545C43.7093 13.697 45.2623 13.3182 46.9744 13.3182C48.1259 13.3182 49.1676 13.5038 50.0994 13.875C51.0388 14.2386 51.8191 14.7917 52.4403 15.5341C53.0616 16.2689 53.4858 17.1894 53.7131 18.2955C53.9479 19.4015 53.9441 20.697 53.7017 22.1818L53.4858 23.5114H38.7585L39.2244 20.5114H49.4062C49.5199 19.8144 49.4744 19.197 49.2699 18.6591C49.0653 18.1212 48.7244 17.7008 48.2472 17.3977C47.7699 17.0871 47.1828 16.9318 46.4858 16.9318C45.7737 16.9318 45.107 17.1061 44.4858 17.4545C43.8646 17.803 43.3419 18.2614 42.9176 18.8295C42.5009 19.3902 42.232 20 42.1108 20.6591L41.5767 23.6364C41.4252 24.553 41.4555 25.3144 41.6676 25.9205C41.8873 26.5265 42.2661 26.9811 42.804 27.2841C43.3419 27.5795 44.0237 27.7273 44.8494 27.7273C45.3873 27.7273 45.8911 27.6515 46.3608 27.5C46.8381 27.3485 47.2623 27.125 47.6335 26.8295C48.0047 26.5265 48.3078 26.1515 48.5426 25.7045L52.9631 26C52.554 27.0758 51.9328 28.0152 51.0994 28.8182C50.2661 29.6136 49.2623 30.2348 48.0881 30.6818C46.9214 31.1212 45.6146 31.3409 44.1676 31.3409Z" fill="black"/>
</g>
<defs>
<filter id="filter0_dddi_19_896" x="0.545471" y="7.72729" width="131.71" height="51.4668" filterUnits="userSpaceOnUse" color-interpolation-filters="sRGB">
<feFlood flood-opacity="0" result="BackgroundImageFix"/>
<feColorMatrix in="SourceAlpha" type="matrix" values="0 0 0 0 0 0 0 0 0 0 0 0 0 0 0 0 0 0 127 0" result="hardAlpha"/>
<feOffset dy="4"/>
<feGaussianBlur stdDeviation="2"/>
<feComposite in2="hardAlpha" operator="out"/>
<feColorMatrix type="matrix" values="0 0 0 0 0 0 0 0 0 0 0 0 0 0 0 0 0 0 0.25 0"/>
<feBlend mode="normal" in2="BackgroundImageFix" result="effect1_dropShadow_19_896"/>
<feColorMatrix in="SourceAlpha" type="matrix" values="0 0 0 0 0 0 0 0 0 0 0 0 0 0 0 0 0 0 127 0" result="hardAlpha"/>
<feOffset dy="4"/>
<feGaussianBlur stdDeviation="2"/>
<feComposite in2="hardAlpha" operator="out"/>
<feColorMatrix type="matrix" values="0 0 0 0 0 0 0 0 0 0 0 0 0 0 0 0 0 0 0.25 0"/>
<feBlend mode="normal" in2="effect1_dropShadow_19_896" result="effect2_dropShadow_19_896"/>
<feColorMatrix in="SourceAlpha" type="matrix" values="0 0 0 0 0 0 0 0 0 0 0 0 0 0 0 0 0 0 127 0" result="hardAlpha"/>
<feOffset dy="4"/>
<feGaussianBlur stdDeviation="2"/>
<feComposite in2="hardAlpha" operator="out"/>
<feColorMatrix type="matrix" values="0 0 0 0 0 0 0 0 0 0 0 0 0 0 0 0 0 0 0.25 0"/>
<feBlend mode="normal" in2="effect2_dropShadow_19_896" result="effect3_dropShadow_19_896"/>
<feBlend mode="normal" in="SourceGraphic" in2="effect3_dropShadow_19_896" result="shape"/>
<feColorMatrix in="SourceAlpha" type="matrix" values="0 0 0 0 0 0 0 0 0 0 0 0 0 0 0 0 0 0 127 0" result="hardAlpha"/>
<feOffset dy="4"/>
<feGaussianBlur stdDeviation="2"/>
<feComposite in2="hardAlpha" operator="arithmetic" k2="-1" k3="1"/>
<feColorMatrix type="matrix" values="0 0 0 0 0 0 0 0 0 0 0 0 0 0 0 0 0 0 0.25 0"/>
<feBlend mode="normal" in2="shape" result="effect4_innerShadow_19_896"/>
</filter>
</defs>
</svg>
